# xmcd
#
# Track frame offsets:
#	150
#	22240
#	44312
#	65455
#	86771
#	105712
#	125059
#	140083
#	160138
#	179965
#	198565
#	217360
#
# Disc length: 3203 seconds
# Revision: 0
# Processed by: cddbd v1.5.2PL0 Copyright (c) Steve Scherf et al.
# Submitted via: dBpowerAMP V12.0
#
DISCID=c70c810c
DTITLE=Patrick Andrey - Night Club
DYEAR=2010
DGENRE=World
TTITLE0=An Pé Ké Twouvé
TTITLE1=Aléw
TTITLE2=C'est Un Secret
TTITLE3=Tudo Pa Bo
TTITLE4=An Mal Pou An Bien
TTITLE5=La Seule Au Monde
TTITLE6=Mayana Coupé
TTITLE7=Le Temps N'efface
TTITLE8=Mèt Sa Haut
TTITLE9=Viv An Pasyon
TTITLE10=Lily
TTITLE11=San Ranku'n
EXTD=
EXTT0=
EXTT1=
EXTT2=
EXTT3=
EXTT4=
EXTT5=
EXTT6=
EXTT7=
EXTT8=
EXTT9=
EXTT10=
EXTT11=
PLAYORDER=
